<?xml version="1.0" encoding="UTF-8"?>
<svg id="a" data-name="Layer 1" xmlns="http://www.w3.org/2000/svg" viewBox="0 0 432 432">
  <defs>
    <style>
      .b {
        fill: #df7776;
      }

      .c {
        fill: #fff;
      }
    </style>
  </defs>
  <polygon class="c" points="182.21 170.86 182.21 170.61 182.01 170.86 182.21 170.86"/>
  <rect class="c" x="241.92" y="308.65" width="26.11" height="0" transform="translate(-145.37 311.03) rotate(-50.78)"/>
  <path class="c" d="M332.88,45.59h-20.49l-87.88,107.68h-28.27l25.46-31.46c-3.76.8-7.65,1.22-11.64,1.22-2.09,0-4.14-.12-6.17-.35l-38.99,48.18h-.61v.75l-16.21,20.03h76.37v117.71l-28.26,34.1v-58.52h-47.37l-25.95,31.86v37.13c0,15.31,12.41,27.72,27.72,27.72h44.82l51.3-62.86h0l16.51-20.23,11.12-13.62,18.84-23.09V117.28l58.51-71.7h-18.82ZM182.21,170.86h-.2l.2-.25v.25Z"/>
  <path class="c" d="M291.45,284.92l-11.12,13.62h0l-67.81,83.08h24.78c30.86,0,55.88-25.02,55.88-55.88v-42.95h0s-1.74,2.12-1.74,2.12Z"/>
  <rect class="c" x="268.79" y="282.94" width="0" height="17.58"/>
  <path class="c" d="M253.59,67c0-24.04-19.49-43.53-43.53-43.53s-43.53,19.49-43.53,43.53,19.49,43.53,43.53,43.53c1.28,0,2.55-.07,3.8-.18,11.92-1.03,22.46-6.86,29.68-15.55l.33-.41,2.48-3.07-.13-.11c4.65-6.93,7.36-15.26,7.36-24.23Z"/>
  <polygon class="b" points="68.92 430.42 68.92 430.97 69.37 430.42 68.92 430.42"/>
</svg>